<svg
        height="24"
        viewBox="0 0 24 24"
        width="24"
        xmlns="http://www.w3.org/2000/svg">
    <g
            id="Page-1"
            fill="none"
    >
        <g
                id="acction-outline"
                fill="#000"
                transform="translate(-168 -120)">
            <g
                    id="quote-right-saying-speech"
                    transform="translate(168 123)">
                <path
                        id="Combined-Shape"
                        d="m18.0027859 12.4588548c-.1712825-1.4663835.6639601-2.81228847 1.852437-3.09787628 1.2097244-.29069354 2.1447771-2.02864481 2.1447771-3.86097852 0-2.48528137-2.0147186-4.5-4.5-4.5-2.6098385 0-4.499992 2.16169741-4.4999315 5.5380257.0151629 4.2050171 2.6115138 7.4006659 6.6825371 8.8069959-.9992371-.8790961-1.5604022-1.8638086-1.6798197-2.8861668zm-.5027859-12.4588548c3.0375661 0 5.5 2.46243388 5.5 5.5 0 2.24359353-1.167947 4.41441778-2.9111308 4.8333002-.672403.1615766-1.2078979 1.02447-1.0928361 2.0095374.1540066 1.3184824 1.3463276 2.6505542 3.7071167 3.7002924.5256439.2337306.3055464 1.024461-.2652638.9529968-6.1525687-.7702882-10.4173542-4.7813592-10.4378142-10.45628872-.0000737-3.90279086 2.3057181-6.53983808 5.4999282-6.53983808z"
                />
                <path
                        id="Combined-Shape"
                        d="m6.00278586 12.4588548c-.17128242-1.4663835.66396014-2.81228847 1.85243702-3.09787628 1.20972445-.29069354 2.14477712-2.02864481 2.14477712-3.86097852 0-2.48528137-2.01471863-4.5-4.5-4.5-2.60983846 0-4.49999201 2.16169741-4.49993148 5.5380257.01516286 4.2050171 2.61151381 7.4006659 6.68253707 8.8069959-.99923714-.8790961-1.56040215-1.8638086-1.67981973-2.8861668zm-.50278586-12.4588548c3.03756612 0 5.5 2.46243388 5.5 5.5 0 2.24359353-1.16794703 4.41441778-2.91113083 4.8333002-.67240301.1615766-1.20789791 1.02447-1.09283612 2.0095374.15400669 1.3184824 1.3463276 2.6505542 3.70711675 3.7002924.5256439.2337306.3055464 1.024461-.2652638.9529968-6.15256873-.7702882-10.41735423-4.7813592-10.43781423-10.45628872-.00007369-3.90279086 2.30571812-6.53983808 5.49992823-6.53983808z"
                />
            </g>
        </g>
    </g>
</svg>
